<svg width="708" height="910" viewBox="0 0 708 910" fill="none" xmlns="http://www.w3.org/2000/svg">
<path fill-rule="evenodd" clip-rule="evenodd" d="M588.521 445.979C588.385 422.875 569.552 404.255 546.453 404.385C523.354 404.521 504.74 423.359 504.875 446.464L505.932 629.141C506.068 652.245 524.901 670.865 547.995 670.734C571.094 670.594 589.714 651.755 589.578 628.651L588.521 445.979ZM544.766 640.849C549.719 640.849 553.729 636.833 553.729 631.885C553.729 626.938 549.719 622.922 544.766 622.922C539.818 622.922 535.807 626.938 535.807 631.885C535.807 636.833 539.818 640.849 544.766 640.849Z" fill="white"/>
<path fill-rule="evenodd" clip-rule="evenodd" d="M580.854 234.094C598.422 251.526 594.078 279.901 574.219 294.672C554.359 309.443 526.542 304.844 507.885 288.573C486.573 269.98 461.583 255.797 434.359 247.052C392.818 233.714 348.151 233.703 306.604 247.026C265.057 260.349 228.719 286.334 202.672 321.349C202 322.25 201.339 323.157 200.682 324.073C178.818 310.573 153.052 302.787 125.474 302.787C119.479 302.787 113.573 303.151 107.776 303.865C114.542 291.375 122.219 279.328 130.771 267.828C167.979 217.813 219.896 180.688 279.245 161.657C338.594 142.625 402.411 142.641 461.755 161.693C506.802 176.162 547.562 201.052 580.854 234.094ZM107.776 588.578C112.76 597.782 118.245 606.756 124.214 615.443C159.505 666.823 209.984 705.881 268.573 727.141C327.167 748.401 390.932 750.797 450.953 733.995C496.516 721.24 538.187 697.901 572.698 666.141C590.911 649.386 587.646 620.87 568.359 605.355C549.068 589.844 521.094 593.391 501.844 608.948C479.839 626.73 454.333 639.953 426.802 647.662C384.786 659.427 340.146 657.745 299.135 642.865C259.536 628.495 225.234 602.521 200.682 568.37C178.818 581.875 153.052 589.662 125.474 589.662C119.479 589.662 113.573 589.292 107.776 588.578ZM565.677 267.313C565.677 272.266 561.667 276.276 556.719 276.276C551.766 276.276 547.755 272.266 547.755 267.313C547.755 262.365 551.766 258.349 556.719 258.349C561.667 258.349 565.677 262.365 565.677 267.313ZM544.766 640.849C549.719 640.849 553.729 636.834 553.729 631.886C553.729 626.938 549.719 622.922 544.766 622.922C539.818 622.922 535.807 626.938 535.807 631.886C535.807 636.834 539.818 640.849 544.766 640.849Z" fill="white"/>
<path d="M541.781 443.625H482.031Z" fill="white"/>
<path d="M541.781 443.625H482.031" stroke="white" stroke-width="83.6596" stroke-linecap="round"/>
<path fill-rule="evenodd" clip-rule="evenodd" d="M278.891 443.625C278.891 420.516 297.615 401.787 320.714 401.787H380.458C403.557 401.787 422.286 420.516 422.286 443.625C422.286 466.729 403.557 485.458 380.458 485.458H320.714C297.615 485.458 278.891 466.729 278.891 443.625Z" fill="white"/>
<mask id="mask0_2404_1600" style="mask-type:luminance" maskUnits="userSpaceOnUse" x="0" y="320" width="252" height="253">
<path d="M0 320.333H251.156V572.334H0V320.333Z" fill="white"/>
</mask>
<g mask="url(#mask0_2404_1600)">
<path fill-rule="evenodd" clip-rule="evenodd" d="M125.474 571.729C194.771 571.729 250.943 515.537 250.943 446.224C250.943 376.907 194.771 320.714 125.474 320.714C56.1771 320.714 0 376.907 0 446.224C0 515.537 56.1771 571.729 125.474 571.729ZM213.167 446.61C213.167 494.474 174.38 533.271 126.531 533.271C78.6875 533.271 39.8958 494.474 39.8958 446.61C39.8958 398.75 78.6875 359.948 126.531 359.948C174.38 359.948 213.167 398.75 213.167 446.61ZM219.141 446.61C219.141 497.771 177.677 539.25 126.531 539.25C75.3854 539.25 33.9219 497.771 33.9219 446.61C33.9219 395.448 75.3854 353.974 126.531 353.974C177.677 353.974 219.141 395.448 219.141 446.61Z" fill="white"/>
</g>
<path fill-rule="evenodd" clip-rule="evenodd" d="M366.948 786.886C555.036 786.886 707.505 634.365 707.505 446.224C707.505 258.078 555.036 105.558 366.948 105.558C221.479 105.558 97.3125 196.787 48.5104 325.172C56.8437 319.86 65.7604 315.386 75.1458 311.865C125.995 201.547 237.531 124.974 366.948 124.974C544.312 124.974 688.094 268.802 688.094 446.224C688.094 623.646 544.312 767.469 366.948 767.469C237.531 767.469 125.995 690.896 75.1458 580.578C65.7604 577.058 56.8437 572.584 48.5104 567.271C97.3125 695.657 221.479 786.886 366.948 786.886Z" fill="white"/>
</svg>
